<svg width="172" height="18" viewBox="0 0 172 18" fill="none" xmlns="http://www.w3.org/2000/svg">
<path d="M156.773 0.360046H171.101V4.96805H162.293V6.67205H170.501V10.728H162.293V12.552H171.221V17.16H156.773V0.360046Z" fill="#FF4D00"/>
<path d="M148.06 17.472C146.348 17.472 144.748 17.24 143.26 16.776C141.788 16.296 140.516 15.584 139.444 14.64L142.444 11.064C143.356 11.768 144.316 12.272 145.324 12.576C146.332 12.88 147.332 13.032 148.324 13.032C148.836 13.032 149.204 12.968 149.428 12.84C149.652 12.712 149.764 12.536 149.764 12.312V12.264C149.764 12.024 149.596 11.824 149.26 11.664C148.94 11.504 148.332 11.336 147.436 11.16C146.492 10.968 145.588 10.744 144.724 10.488C143.876 10.232 143.124 9.90404 142.468 9.50404C141.828 9.10404 141.316 8.60804 140.932 8.01604C140.548 7.40804 140.356 6.65604 140.356 5.76004V5.71204C140.356 4.91204 140.508 4.16804 140.812 3.48003C141.132 2.79204 141.588 2.19204 142.18 1.68004C142.788 1.16804 143.532 0.768035 144.412 0.480035C145.308 0.192035 146.332 0.0480347 147.484 0.0480347C149.116 0.0480347 150.54 0.240035 151.756 0.624036C152.988 1.00804 154.092 1.58404 155.068 2.35204L152.332 6.14404C151.532 5.56804 150.684 5.15204 149.788 4.89604C148.908 4.62404 148.076 4.48804 147.292 4.48804C146.876 4.48804 146.564 4.55204 146.356 4.68004C146.164 4.80804 146.068 4.97604 146.068 5.18404V5.23204C146.068 5.34404 146.1 5.44804 146.164 5.54404C146.228 5.64004 146.34 5.73604 146.5 5.83204C146.676 5.91204 146.908 5.99204 147.196 6.07204C147.484 6.15204 147.852 6.23204 148.3 6.31204C149.372 6.50404 150.348 6.73604 151.228 7.00804C152.108 7.28004 152.86 7.63204 153.484 8.06404C154.124 8.48004 154.612 8.98404 154.948 9.57604C155.3 10.168 155.476 10.888 155.476 11.736V11.784C155.476 12.664 155.3 13.456 154.948 14.16C154.596 14.864 154.1 15.464 153.46 15.96C152.82 16.44 152.036 16.816 151.108 17.088C150.196 17.344 149.18 17.472 148.06 17.472Z" fill="#FF4D00"/>
<path d="M130.714 17.496C129.466 17.496 128.33 17.352 127.306 17.064C126.298 16.76 125.434 16.288 124.714 15.648C123.994 15.008 123.434 14.192 123.034 13.2C122.65 12.208 122.458 11.016 122.458 9.62405V0.360046H128.17V9.55205C128.17 10.592 128.41 11.352 128.89 11.832C129.386 12.296 130.01 12.528 130.762 12.528C131.53 12.528 132.154 12.312 132.634 11.88C133.114 11.432 133.354 10.696 133.354 9.67205V0.360046H139.066V9.50405C139.066 10.944 138.866 12.168 138.466 13.176C138.066 14.184 137.498 15.008 136.762 15.648C136.042 16.288 135.162 16.76 134.122 17.064C133.098 17.352 131.962 17.496 130.714 17.496Z" fill="#FF4D00"/>
<path d="M111.933 12.552C112.461 12.552 112.941 12.448 113.373 12.24C113.805 12.032 114.173 11.76 114.477 11.424C114.781 11.072 115.013 10.672 115.173 10.224C115.333 9.776 115.413 9.304 115.413 8.808V8.76C115.413 8.264 115.325 7.792 115.149 7.344C114.989 6.88 114.757 6.472 114.453 6.12C114.149 5.768 113.781 5.488 113.349 5.28C112.917 5.072 112.429 4.968 111.885 4.968C111.357 4.968 110.877 5.072 110.445 5.28C110.013 5.488 109.645 5.768 109.341 6.12C109.037 6.456 108.805 6.848 108.645 7.296C108.485 7.744 108.405 8.216 108.405 8.712V8.76C108.405 9.256 108.485 9.736 108.645 10.2C108.821 10.648 109.061 11.048 109.365 11.4C109.669 11.752 110.037 12.032 110.469 12.24C110.901 12.448 111.389 12.552 111.933 12.552ZM111.885 17.52C110.589 17.52 109.381 17.296 108.261 16.848C107.157 16.4 106.189 15.784 105.357 15C104.541 14.216 103.901 13.296 103.437 12.24C102.973 11.168 102.741 10.024 102.741 8.808V8.76C102.741 7.544 102.973 6.408 103.437 5.352C103.917 4.28 104.565 3.352 105.381 2.568C106.213 1.768 107.189 1.144 108.309 0.696C109.429 0.232 110.637 0 111.933 0C113.229 0 114.429 0.224 115.533 0.672C116.653 1.12 117.621 1.736 118.437 2.52C119.269 3.304 119.917 4.232 120.381 5.304C120.845 6.36 121.077 7.496 121.077 8.712V8.76C121.077 9.976 120.837 11.12 120.357 12.192C119.893 13.248 119.245 14.176 118.413 14.976C117.597 15.76 116.629 16.384 115.509 16.848C114.389 17.296 113.181 17.52 111.885 17.52Z" fill="#FF4D00"/>
<path d="M84.8438 0.360046H90.4598V6.28805H95.5957V0.360046H101.212V17.16H95.5957V11.136H90.4598V17.16H84.8438V0.360046Z" fill="#FF4D00"/>
<path d="M75.7275 8.35205C76.3995 8.35205 76.9275 8.20805 77.3115 7.92005C77.6955 7.63205 77.8875 7.23205 77.8875 6.72005V6.67205C77.8875 6.12805 77.6955 5.72805 77.3115 5.47205C76.9275 5.20005 76.4075 5.06405 75.7515 5.06405H73.3035V8.35205H75.7275ZM67.6875 0.360046H75.8955C77.3995 0.360046 78.6315 0.536047 79.5915 0.888047C80.5675 1.22405 81.3515 1.68805 81.9435 2.28005C82.4555 2.79205 82.8395 3.36805 83.0955 4.00805C83.3515 4.64805 83.4795 5.40005 83.4795 6.26405V6.31205C83.4795 7.54405 83.1835 8.58405 82.5915 9.43205C81.9995 10.28 81.1915 10.952 80.1675 11.448L84.0795 17.16H77.6715L74.5035 12.36H74.4555H73.3035V17.16H67.6875V0.360046Z" fill="#FF4D00"/>
<path d="M51.7266 0.360046H66.0546V4.96805H57.2466V6.67205H65.4546V10.728H57.2466V12.552H66.1746V17.16H51.7266V0.360046Z" fill="#FF4D00"/>
<path d="M42.5889 8.59205C43.3089 8.59205 43.8849 8.44005 44.3169 8.13605C44.7649 7.81605 44.9889 7.35205 44.9889 6.74405V6.69605C44.9889 6.08805 44.7809 5.63205 44.3649 5.32805C43.9489 5.00805 43.3649 4.84805 42.6129 4.84805H41.0769V8.59205H42.5889ZM35.4609 0.360046H43.0209C44.1409 0.360046 45.1569 0.488047 46.0689 0.744047C46.9969 0.984047 47.7889 1.35205 48.4449 1.84805C49.1009 2.34405 49.6129 2.96805 49.9809 3.72005C50.3489 4.47205 50.5329 5.34405 50.5329 6.33605V6.38405C50.5329 7.39205 50.3489 8.28805 49.9809 9.07205C49.6129 9.84005 49.0929 10.488 48.4209 11.016C47.7489 11.544 46.9409 11.944 45.9969 12.216C45.0689 12.472 44.0369 12.6 42.9009 12.6H41.0769V17.16H35.4609V0.360046Z" fill="#FF4D00"/>
<path d="M26.3935 10.9201L24.8575 6.84005L23.3215 10.9201H26.3935ZM22.1215 0.240051H27.6895L34.7695 17.1601H28.6735L27.7855 14.9041H21.9055L21.0415 17.1601H15.0415L22.1215 0.240051Z" fill="#FF4D00"/>
<path d="M7.128 8.59205C7.848 8.59205 8.424 8.44005 8.856 8.13605C9.304 7.81605 9.528 7.35205 9.528 6.74405V6.69605C9.528 6.08805 9.32 5.63205 8.904 5.32805C8.488 5.00805 7.904 4.84805 7.152 4.84805H5.616V8.59205H7.128ZM0 0.360046H7.56C8.68 0.360046 9.696 0.488047 10.608 0.744047C11.536 0.984047 12.328 1.35205 12.984 1.84805C13.64 2.34405 14.152 2.96805 14.52 3.72005C14.888 4.47205 15.072 5.34405 15.072 6.33605V6.38405C15.072 7.39205 14.888 8.28805 14.52 9.07205C14.152 9.84005 13.632 10.488 12.96 11.016C12.288 11.544 11.48 11.944 10.536 12.216C9.608 12.472 8.576 12.6 7.44 12.6H5.616V17.16H0V0.360046Z" fill="#FF4D00"/>
</svg>
